<svg xmlns="http://www.w3.org/2000/svg" viewBox="0 0 64 64">
  <rect width="64" height="64" rx="16" fill="#e9ff12"/>
  <path d="M18 20.5c0-4 3.1-7.1 7.1-7.1h13.8c4 0 7.1 3.1 7.1 7.1v23c0 4-3.1 7.1-7.1 7.1H25.1c-4 0-7.1-3.1-7.1-7.1v-23Z" fill="#050509"/>
  <path d="M25.2 30.4c0-5 3.8-8.8 9.1-8.8 3.3 0 5.8 1.3 7.4 3.6l-4.2 3.2c-.8-1.1-1.8-1.7-3.1-1.7-2.2 0-3.6 1.5-3.6 3.8v3.2c0 2.2 1.5 3.8 3.7 3.8 1.4 0 2.5-.7 3.3-1.9l4.3 3.1c-1.6 2.5-4.3 3.9-7.8 3.9-5.3 0-9.1-3.8-9.1-8.8v-3.4Z" fill="#e9ff12"/>
  <path d="M16 53h32" stroke="#050509" stroke-width="4" stroke-linecap="round"/>
</svg>
